<svg width="25" height="25" viewBox="0 0 25 25" fill="none" xmlns="http://www.w3.org/2000/svg">
<path d="M19.1484 7.64839C19.1484 3.98235 16.166 1 12.5 1C8.83395 1 5.8516 3.98235 5.8516 7.64839C5.8516 9.91914 6.9962 11.9275 8.73853 13.127C7.11188 13.6883 5.62115 14.6155 4.36853 15.8681C2.19636 18.0402 1 20.9285 1 24H2.79679C2.79679 18.6497 7.14969 14.2968 12.5 14.2968C16.166 14.2968 19.1484 11.3144 19.1484 7.64839ZM12.5 12.5C9.82507 12.5 7.64839 10.3238 7.64839 7.64839C7.64839 4.97301 9.82507 2.79679 12.5 2.79679C15.1749 2.79679 17.3516 4.97301 17.3516 7.64839C17.3516 10.3238 15.1754 12.5 12.5 12.5Z" fill="#FF6647" stroke="#FF6647"/>
<path d="M20.2711 18.4294V14.6562H18.4743V18.4294H14.7012V20.2267H18.4743V23.9998H20.2711V20.2267H24.0448V18.4294H20.2711Z" fill="#FF6647" stroke="#FF6647"/>
</svg>
