<svg width="20" height="20" viewBox="0 0 20 20" fill="none" xmlns="http://www.w3.org/2000/svg">
<path d="M10.9944 10L18.794 2.20035C19.0687 1.92574 19.0687 1.48052 18.794 1.20595C18.5194 0.931384 18.0742 0.931349 17.7997 1.20595L9.99998 9.00565L2.20035 1.20595C1.92574 0.931349 1.48052 0.931349 1.20595 1.20595C0.931384 1.48056 0.931349 1.92578 1.20595 2.20035L9.00559 10L1.20595 17.7997C0.931349 18.0743 0.931349 18.5195 1.20595 18.7941C1.34324 18.9314 1.5232 19 1.70317 19C1.88313 19 2.06306 18.9314 2.20038 18.7941L9.99998 10.9944L17.7996 18.7941C17.9369 18.9314 18.1169 19 18.2968 19C18.4768 19 18.6567 18.9314 18.794 18.7941C19.0687 18.5195 19.0687 18.0743 18.794 17.7997L10.9944 10Z" fill="white" stroke="white" stroke-width="0.3"/>
</svg>
