<svg width="23" height="17" viewBox="0 0 23 17" fill="none" xmlns="http://www.w3.org/2000/svg">
<path fill-rule="evenodd" clip-rule="evenodd" d="M0 5.48272C0 2.67018 2.28785 0.382324 5.10036 0.382324C7.84131 0.382324 9.98599 2.51647 10.2001 5.45674C10.5654 10.4648 8.0403 14.5517 5.76718 16.5296C5.69944 16.5882 5.61556 16.6177 5.53136 16.6177C5.44464 16.6177 5.35832 16.5865 5.28989 16.5244C5.08854 16.3416 4.95078 16.2014 4.64996 15.8954L4.64798 15.8933L4.63229 15.8774C4.40218 15.643 4.0752 15.31 3.55336 14.7882C3.43088 14.6657 3.41298 14.4731 3.5116 14.3302C4.81609 12.4365 4.85084 11.0751 4.80452 10.575C2.12923 10.4213 0 8.19593 0 5.48272ZM22.9639 5.45638V5.45674C23.3288 10.4645 20.8037 14.5513 18.5306 16.5293C18.4629 16.5882 18.379 16.6177 18.2948 16.6177C18.2084 16.6177 18.1218 16.5865 18.0533 16.5247C17.8505 16.3408 17.7119 16.1997 17.4083 15.8902L17.3531 15.8341C17.1254 15.6025 16.8072 15.2789 16.3165 14.7882C16.194 14.6657 16.1761 14.4731 16.2747 14.3302C17.5795 12.4354 17.6146 11.0748 17.5683 10.575C14.8927 10.4213 12.7631 8.19593 12.7631 5.48272C12.7631 2.67018 15.0513 0.382324 17.8638 0.382324C20.6041 0.382324 22.7491 2.51647 22.9639 5.45638Z" fill="#D7D5D5" fill-opacity="0.65"/>
</svg>
