<svg width="25" height="22" viewBox="0 0 25 22" fill="none" xmlns="http://www.w3.org/2000/svg">
<path d="M7.39211 21C7.20865 21 7.02519 20.9635 6.85139 20.8995C6.35894 20.7169 6.01134 20.2877 5.9534 19.7854L5.68304 17.5845H5.06507C2.82494 17.5845 1 15.8584 1 13.7306V4.84475C1 2.72603 2.82494 1 5.06507 1H19.9253C22.1654 1 23.9903 2.72603 23.9903 4.84475V13.7306C23.9903 15.8493 22.1654 17.5753 19.9253 17.5753H12.2393L8.31906 20.6712C8.05835 20.8904 7.73006 21 7.39211 21ZM5.06507 3.73973C4.41814 3.73973 3.89673 4.23288 3.89673 4.84475V13.7306C3.89673 14.3425 4.41814 14.8356 5.06507 14.8356H6.96725C7.70109 14.8356 8.31906 15.3562 8.40596 16.0502L8.52183 16.9543L10.7909 15.1644C11.0516 14.9543 11.3799 14.8447 11.7179 14.8447H19.9253C20.5722 14.8447 21.0936 14.3516 21.0936 13.7397V4.84475C21.1033 4.23288 20.5722 3.73973 19.9253 3.73973H5.06507Z" fill="#9E9E9E" stroke="white" stroke-width="0.3"/>
</svg>
