<svg width="29" height="22" viewBox="0 0 29 22" fill="none" xmlns="http://www.w3.org/2000/svg">
<path d="M27.8583 10.6498L27.8584 10.6502C27.9355 10.8773 27.9355 11.1227 27.8584 11.3498L27.8583 11.3502C25.8363 17.2673 20.4041 21.25 14.3331 21.25C8.26215 21.25 2.83 17.2673 0.808004 11.3502L0.807852 11.3498C0.730728 11.1227 0.730728 10.8773 0.80785 10.6502L0.808004 10.6498C2.83005 4.73271 8.26219 0.75 14.3331 0.75C20.4041 0.75 25.8363 4.73271 27.8583 10.6498ZM14.3331 19.0833C19.3481 19.0833 23.867 15.8546 25.6828 11C23.867 6.14543 19.3481 2.91668 14.3331 2.91668C9.3182 2.91668 4.79927 6.14543 2.98348 11C4.79927 15.8546 9.3182 19.0833 14.3331 19.0833Z" fill="#B4ADA3" stroke="#B4ADA3" stroke-width="0.5"/>
<path d="M14.3335 6C17.0906 6 19.3335 8.24286 19.3335 11C19.3335 13.7571 17.0906 16 14.3335 16C11.5764 16 9.3335 13.7572 9.3335 11C9.3335 8.24281 11.5764 6 14.3335 6ZM14.3335 14.3333C16.1719 14.3333 17.6668 12.8384 17.6668 11C17.6668 9.1616 16.1719 7.66668 14.3335 7.66668C12.4951 7.66668 11.0002 9.16165 11.0002 11C11.0002 12.8384 12.4951 14.3333 14.3335 14.3333Z" fill="#B4ADA3"/>
</svg>
