<svg width="14" height="14" viewBox="0 0 14 14" fill="none" xmlns="http://www.w3.org/2000/svg">
<path d="M11.9522 2.04792C9.2217 -0.682504 4.77867 -0.682773 2.04795 2.04792C-0.682783 4.7786 -0.682514 9.22129 2.04795 11.952C4.7784 14.6827 9.22143 14.6827 11.9522 11.952C14.6826 9.22129 14.6826 4.77834 11.9522 2.04792ZM9.76176 9.76161C9.55139 9.97198 9.21038 9.97198 9.00002 9.76161L7.00005 7.76168L4.905 9.8567C4.69463 10.0671 4.35363 10.0671 4.14326 9.8567C3.9329 9.64633 3.9329 9.30533 4.14326 9.09497L6.23831 6.99995L4.23835 5.00001C4.02798 4.78965 4.02798 4.44838 4.23835 4.23828C4.44871 4.02792 4.78972 4.02792 5.00008 4.23828L7.00005 6.23822L8.90466 4.33364C9.11503 4.12327 9.45604 4.12327 9.6664 4.33364C9.87677 4.544 9.87677 4.885 9.6664 5.09536L7.76179 6.99995L9.76176 8.99989C9.97212 9.21025 9.97212 9.55125 9.76176 9.76161Z" fill="#F9F7F4"/>
</svg>
