<svg width="12" height="8" viewBox="0 0 12 8" fill="none" xmlns="http://www.w3.org/2000/svg">
<path d="M6.00254 5.41059L1.51317 1.04408C1.38985 0.923843 1.22498 0.857701 1.04917 0.857701C0.873268 0.857701 0.708487 0.923843 0.584975 1.04408L0.191805 1.42669C0.0680973 1.54674 -2.62602e-07 1.7072 -2.55128e-07 1.87821C-2.47653e-07 2.04921 0.0680973 2.20949 0.191805 2.32962L5.53678 7.52866C5.66068 7.64927 5.82624 7.71532 6.00224 7.71484C6.17902 7.71532 6.34439 7.64936 6.46839 7.52866L11.8082 2.33446C11.9319 2.21432 12 2.05405 12 1.88295C12 1.71195 11.9319 1.55167 11.8082 1.43144L11.415 1.04891C11.1591 0.800004 10.7425 0.800004 10.4867 1.04891L6.00254 5.41059Z" fill="#363636"/>
</svg>
