<svg width="17" height="17" viewBox="0 0 17 17" fill="none" xmlns="http://www.w3.org/2000/svg">
<path d="M16.8647 5.0344C16.8256 4.14865 16.6823 3.5397 16.4771 3.01204C16.2654 2.45194 15.9397 1.95048 15.5129 1.53362C15.096 1.11026 14.5911 0.781302 14.0374 0.572934C13.5066 0.367747 12.9007 0.224509 12.0148 0.185456C11.1222 0.143096 10.8389 0.133301 8.57516 0.133301C6.31143 0.133301 6.02808 0.143096 5.13885 0.182149C4.25293 0.221202 3.64386 0.364566 3.11623 0.569627C2.55589 0.781302 2.05434 1.10696 1.6374 1.53362C1.21397 1.95048 0.885069 2.45524 0.676534 3.00886C0.471307 3.5397 0.328043 4.14534 0.288982 5.03109C0.246613 5.92346 0.236816 6.20676 0.236816 8.47006C0.236816 10.7334 0.246613 11.0166 0.285674 11.9057C0.324734 12.7915 0.468126 13.4004 0.673353 13.9281C0.885069 14.4882 1.21397 14.9896 1.6374 15.4065C2.05434 15.8298 2.5592 16.1588 3.11292 16.3672C3.64386 16.5724 4.24962 16.7156 5.13567 16.7547C6.02478 16.7938 6.30825 16.8035 8.57198 16.8035C10.8357 16.8035 11.1191 16.7938 12.0083 16.7547C12.8942 16.7156 13.5033 16.5724 14.0309 16.3672C15.1515 15.934 16.0374 15.0483 16.4706 13.9281C16.6757 13.3972 16.8191 12.7915 16.8582 11.9057C16.8972 11.0166 16.907 10.7334 16.907 8.47006C16.907 6.20676 16.9037 5.92346 16.8647 5.0344ZM15.3632 11.8406C15.3273 12.6547 15.1905 13.0944 15.0765 13.3874C14.7964 14.1137 14.2199 14.6901 13.4935 14.9702C13.2003 15.0842 12.7574 15.2209 11.9463 15.2566C11.0669 15.2958 10.8031 15.3055 8.57847 15.3055C6.3538 15.3055 6.08674 15.2958 5.21048 15.2566C4.39619 15.2209 3.95648 15.0842 3.66333 14.9702C3.30186 14.8366 2.97284 14.6249 2.70577 14.3481C2.42892 14.0778 2.2172 13.7521 2.0836 13.3907C1.9696 13.0977 1.83283 12.6547 1.79708 11.8439C1.75789 10.9646 1.74822 10.7008 1.74822 8.47654C1.74822 6.2523 1.75789 5.98529 1.79708 5.10933C1.83283 4.29519 1.9696 3.85556 2.0836 3.56247C2.2172 3.20094 2.42892 2.87211 2.70908 2.60497C2.97933 2.32816 3.30504 2.11649 3.66664 1.98304C3.95978 1.86906 4.40281 1.73232 5.21379 1.69644C6.09323 1.65739 6.35711 1.64759 8.58165 1.64759C10.8096 1.64759 11.0734 1.65739 11.9496 1.69644C12.7639 1.73232 13.2036 1.86906 13.4968 1.98304C13.8583 2.11649 14.1873 2.32816 14.4543 2.60497C14.7312 2.87529 14.9429 3.20094 15.0765 3.56247C15.1905 3.85556 15.3273 4.29837 15.3632 5.10933C15.4022 5.98859 15.412 6.2523 15.412 8.47654C15.412 10.7008 15.4022 10.9613 15.3632 11.8406Z" fill="url(#paint0_linear)"/>
<path d="M8.57614 4.18799C6.21152 4.18799 4.29297 6.10604 4.29297 8.47035C4.29297 10.8346 6.21152 12.7527 8.57614 12.7527C10.9409 12.7527 12.8593 10.8346 12.8593 8.47035C12.8593 6.10604 10.9409 4.18799 8.57614 4.18799ZM8.57614 11.2482C7.04209 11.2482 5.79775 10.0042 5.79775 8.47035C5.79775 6.93646 7.04209 5.69249 8.57614 5.69249C10.1103 5.69249 11.3545 6.93646 11.3545 8.47035C11.3545 10.0042 10.1103 11.2482 8.57614 11.2482Z" fill="url(#paint1_linear)"/>
<path d="M14.0259 4.01927C14.0259 4.57135 13.5781 5.019 13.0258 5.019C12.4736 5.019 12.0259 4.57135 12.0259 4.01927C12.0259 3.46705 12.4736 3.01953 13.0258 3.01953C13.5781 3.01953 14.0259 3.46705 14.0259 4.01927Z" fill="url(#paint2_linear)"/>
<defs>
<linearGradient id="paint0_linear" x1="2.6787" y1="14.3632" x2="14.4651" y2="2.57519" gradientUnits="userSpaceOnUse">
<stop stop-color="#FFC107"/>
<stop offset="0.507" stop-color="#F44336"/>
<stop offset="0.99" stop-color="#9C27B0"/>
</linearGradient>
<linearGradient id="paint1_linear" x1="5.54779" y1="11.4989" x2="11.6033" y2="5.44141" gradientUnits="userSpaceOnUse">
<stop stop-color="#FFC107"/>
<stop offset="0.507" stop-color="#F44336"/>
<stop offset="0.99" stop-color="#9C27B0"/>
</linearGradient>
<linearGradient id="paint2_linear" x1="12.3188" y1="4.7263" x2="13.7325" y2="3.31205" gradientUnits="userSpaceOnUse">
<stop stop-color="#FFC107"/>
<stop offset="0.507" stop-color="#F44336"/>
<stop offset="0.99" stop-color="#9C27B0"/>
</linearGradient>
</defs>
</svg>
