<svg width="16" height="16" viewBox="0 0 16 16" fill="none" xmlns="http://www.w3.org/2000/svg">
<path d="M15.5861 4.78637C15.5495 3.95749 15.4155 3.38764 15.2235 2.89385C15.0254 2.36972 14.7206 1.90046 14.3214 1.51036C13.9313 1.11419 13.4589 0.806347 12.9409 0.611358C12.4442 0.419344 11.8773 0.285304 11.0485 0.248758C10.2134 0.209117 9.94828 0.199951 7.83029 0.199951C5.71231 0.199951 5.44721 0.209117 4.61523 0.245663C3.78634 0.282209 3.21649 0.416368 2.72283 0.608263C2.19857 0.806347 1.72931 1.11109 1.33921 1.51036C0.943045 1.90046 0.635324 2.37281 0.440215 2.89088C0.248202 3.38764 0.114161 3.95439 0.0776155 4.78328C0.0379748 5.61835 0.0288086 5.88346 0.0288086 8.00144C0.0288086 10.1194 0.0379748 10.3845 0.0745204 11.2165C0.111066 12.0454 0.245226 12.6152 0.437239 13.109C0.635324 13.6332 0.943045 14.1024 1.33921 14.4925C1.72931 14.8887 2.20167 15.1965 2.71974 15.3915C3.21649 15.5835 3.78325 15.7176 4.61225 15.7541C5.44411 15.7908 5.70934 15.7998 7.82732 15.7998C9.9453 15.7998 10.2104 15.7908 11.0424 15.7541C11.8713 15.7176 12.4411 15.5835 12.9348 15.3915C13.9832 14.9862 14.8121 14.1573 15.2174 13.109C15.4093 12.6123 15.5435 12.0454 15.58 11.2165C15.6165 10.3845 15.6257 10.1194 15.6257 8.00144C15.6257 5.88346 15.6226 5.61835 15.5861 4.78637ZM14.1813 11.1556C14.1477 11.9174 14.0197 12.3288 13.9131 12.6031C13.6509 13.2827 13.1116 13.8221 12.432 14.0842C12.1577 14.1909 11.7433 14.3188 10.9844 14.3523C10.1616 14.389 9.91483 14.398 7.83339 14.398C5.75195 14.398 5.50209 14.389 4.68225 14.3523C3.92039 14.3188 3.50898 14.1909 3.23471 14.0842C2.89651 13.9592 2.58867 13.7611 2.3388 13.5021C2.07977 13.2491 1.88169 12.9444 1.75669 12.6062C1.65003 12.3319 1.52206 11.9174 1.48861 11.1586C1.45195 10.3358 1.4429 10.0889 1.4429 8.00751C1.4429 5.92607 1.45195 5.67621 1.48861 4.85649C1.52206 4.09462 1.65003 3.68322 1.75669 3.40895C1.88169 3.07063 2.07977 2.76291 2.3419 2.51292C2.59474 2.25389 2.89949 2.0558 3.2378 1.93093C3.51207 1.82427 3.92658 1.6963 4.68534 1.66273C5.50816 1.62618 5.75505 1.61702 7.83637 1.61702C9.9209 1.61702 10.1677 1.62618 10.9875 1.66273C11.7494 1.6963 12.1608 1.82427 12.435 1.93093C12.7732 2.0558 13.0811 2.25389 13.331 2.51292C13.59 2.76589 13.7881 3.07063 13.9131 3.40895C14.0197 3.68322 14.1477 4.0976 14.1813 4.85649C14.2178 5.6793 14.227 5.92607 14.227 8.00751C14.227 10.0889 14.2178 10.3327 14.1813 11.1556Z" fill="white"/>
<path d="M7.82918 3.99524C5.6168 3.99524 3.82178 5.79014 3.82178 8.00264C3.82178 10.2151 5.6168 12.01 7.82918 12.01C10.0417 12.01 11.8366 10.2151 11.8366 8.00264C11.8366 5.79014 10.0417 3.99524 7.82918 3.99524ZM7.82918 10.6021C6.3939 10.6021 5.22968 9.43804 5.22968 8.00264C5.22968 6.56724 6.3939 5.40314 7.82918 5.40314C9.26458 5.40314 10.4287 6.56724 10.4287 8.00264C10.4287 9.43804 9.26458 10.6021 7.82918 10.6021Z" fill="white"/>
<path d="M12.9327 3.8363C12.9327 4.35294 12.5138 4.77185 11.9971 4.77185C11.4804 4.77185 11.0615 4.35294 11.0615 3.8363C11.0615 3.31954 11.4804 2.90076 11.9971 2.90076C12.5138 2.90076 12.9327 3.31954 12.9327 3.8363Z" fill="white"/>
</svg>
