<svg width="23" height="21" viewBox="0 0 23 21" fill="none" xmlns="http://www.w3.org/2000/svg">
<path d="M11.5 21C10.8643 21 10.257 20.7699 9.78259 20.3479C8.97607 19.6288 8.18853 18.9575 7.50536 18.363C5.40842 16.5603 3.62459 15.0164 2.32467 13.4438C0.740099 11.5069 0 9.63699 0 7.55616C0 5.52329 0.702145 3.63425 1.9736 2.23425C3.29249 0.79589 5.0953 0 7.04992 0C8.5396 0 9.89645 0.469863 11.092 1.40959C11.2343 1.51507 11.3672 1.63014 11.5 1.75479C11.6328 1.63014 11.7657 1.51507 11.908 1.40959C13.1035 0.469863 14.4604 0 15.9501 0C17.9047 0 19.7075 0.79589 21.0264 2.23425C22.2979 3.63425 23 5.52329 23 7.55616C23 9.63699 22.2599 11.4973 20.6753 13.4342C19.3754 15.0164 17.5821 16.5603 15.5041 18.3534L15.3808 18.4589C14.7166 19.0247 13.9765 19.6671 13.2079 20.3479C12.743 20.7603 12.1357 21 11.5 21ZM7.04992 2.87671C5.90181 2.87671 4.83911 3.34658 4.07054 4.19041C3.283 5.05342 2.84653 6.25206 2.84653 7.55616C2.84653 8.94658 3.35891 10.1932 4.5165 11.6027C5.65512 12.9932 7.35355 14.4603 9.32715 16.1575C10.0008 16.7329 10.7314 17.3658 11.5 18.037C12.2211 17.4041 12.9138 16.8 13.54 16.263L13.6539 16.1671C15.637 14.4603 17.3449 12.9836 18.4835 11.6027C19.6411 10.1932 20.1535 8.94658 20.1535 7.55616C20.1535 6.24247 19.717 5.04384 18.9295 4.18082C18.1609 3.34658 17.0982 2.87671 15.9501 2.87671C15.0961 2.87671 14.3465 3.13562 13.6539 3.68219C13.2933 3.96986 12.9517 4.32466 12.6576 4.73699L11.5 6.34795L10.3424 4.73699C10.0483 4.32466 9.70668 3.96986 9.34612 3.68219C8.65347 3.13562 7.90388 2.87671 7.04992 2.87671Z" fill="#9E9E9E"/>
</svg>
