<svg width="10" height="12" viewBox="0 0 10 12" fill="none" xmlns="http://www.w3.org/2000/svg">
<path d="M8.96962 2.09302C8.09055 0.753488 6.63938 0 5.00683 0C3.38822 0 1.93706 0.753488 1.03008 2.09302C0.123106 3.40465 -0.0861965 5.07907 0.471943 6.54419C0.625431 6.93488 0.862641 7.33953 1.16962 7.70233L4.69985 11.8605C4.78357 11.9442 4.86729 12 4.99287 12C5.11845 12 5.20217 11.9442 5.2859 11.8605L8.83008 7.70233C9.13706 7.33953 9.38822 6.94884 9.52775 6.54419C10.0859 5.07907 9.87659 3.40465 8.96962 2.09302ZM5.00683 7.03256C3.80683 7.03256 2.81613 6.04186 2.81613 4.84186C2.81613 3.64186 3.80683 2.65116 5.00683 2.65116C6.20683 2.65116 7.19752 3.64186 7.19752 4.84186C7.19752 6.04186 6.22078 7.03256 5.00683 7.03256Z" fill="#C0C0C0"/>
</svg>
