<svg width="19" height="20" viewBox="0 0 19 20" fill="none" xmlns="http://www.w3.org/2000/svg">
<path d="M17.7081 3.33329C17.7081 4.82911 16.4956 6.04172 14.9998 6.04172C13.504 6.04172 12.2915 4.82911 12.2915 3.33329C12.2915 1.83762 13.504 0.625 14.9998 0.625C16.4956 0.625 17.7081 1.83762 17.7081 3.33329Z" fill="#B4ADA3"/>
<path d="M14.9998 6.66673C13.1614 6.66673 11.6665 5.17167 11.6665 3.33329C11.6665 1.49506 13.1614 0 14.9998 0C16.8382 0 18.3331 1.49506 18.3331 3.33329C18.3331 5.17167 16.8382 6.66673 14.9998 6.66673ZM14.9998 1.25C13.8506 1.25 12.9165 2.18506 12.9165 3.33329C12.9165 4.48166 13.8506 5.41672 14.9998 5.41672C16.1489 5.41672 17.0831 4.48166 17.0831 3.33329C17.0831 2.18506 16.1489 1.25 14.9998 1.25Z" fill="#B4ADA3"/>
<path d="M17.7081 16.6668C17.7081 18.1625 16.4956 19.3751 14.9998 19.3751C13.504 19.3751 12.2915 18.1625 12.2915 16.6668C12.2915 15.171 13.504 13.9584 14.9998 13.9584C16.4956 13.9584 17.7081 15.171 17.7081 16.6668Z" fill="#B4ADA3"/>
<path d="M14.9998 20.0001C13.1614 20.0001 11.6665 18.505 11.6665 16.6668C11.6665 14.8284 13.1614 13.3334 14.9998 13.3334C16.8382 13.3334 18.3331 14.8284 18.3331 16.6668C18.3331 18.505 16.8382 20.0001 14.9998 20.0001ZM14.9998 14.5834C13.8506 14.5834 12.9165 15.5184 12.9165 16.6668C12.9165 17.815 13.8506 18.7501 14.9998 18.7501C16.1489 18.7501 17.0831 17.815 17.0831 16.6668C17.0831 15.5184 16.1489 14.5834 14.9998 14.5834Z" fill="#B4ADA3"/>
<path d="M6.04172 9.99991C6.04172 11.4957 4.82911 12.7082 3.33329 12.7082C1.83762 12.7082 0.625 11.4957 0.625 9.99991C0.625 8.50409 1.83762 7.29163 3.33329 7.29163C4.82911 7.29163 6.04172 8.50409 6.04172 9.99991Z" fill="#B4ADA3"/>
<path d="M3.33329 13.3332C1.49506 13.3332 0 11.8383 0 9.99991C0 8.16153 1.49506 6.66663 3.33329 6.66663C5.17167 6.66663 6.66673 8.16153 6.66673 9.99991C6.66673 11.8383 5.17167 13.3332 3.33329 13.3332ZM3.33329 7.91663C2.18415 7.91663 1.25 8.85153 1.25 9.99991C1.25 11.1483 2.18415 12.0832 3.33329 12.0832C4.48258 12.0832 5.41672 11.1483 5.41672 9.99991C5.41672 8.85153 4.48258 7.91663 3.33329 7.91663Z" fill="#B4ADA3"/>
<path d="M5.30047 9.60207C5.0104 9.60207 4.72873 9.45116 4.57538 9.18123C4.34787 8.78206 4.48794 8.27287 4.88711 8.04445L12.6195 3.63618C13.0187 3.40699 13.5279 3.54707 13.7563 3.94776C13.9838 4.34693 13.8437 4.85612 13.4446 5.08454L5.712 9.49281C5.582 9.56697 5.4404 9.60207 5.30047 9.60207Z" fill="#B4ADA3"/>
<path d="M13.0312 16.4769C12.8912 16.4769 12.7496 16.4418 12.6195 16.3677L4.887 11.9594C4.48783 11.7319 4.3479 11.2227 4.57541 10.8226C4.80201 10.4227 5.31196 10.2818 5.71204 10.511L13.4446 14.9193C13.8438 15.1468 13.9837 15.656 13.7562 16.0561C13.6021 16.326 13.3204 16.4769 13.0312 16.4769Z" fill="#B4ADA3"/>
</svg>
