<svg width="17" height="20" viewBox="0 0 17 20" fill="none" xmlns="http://www.w3.org/2000/svg">
<path d="M8.21545 9.63369C9.53895 9.63369 10.685 9.15901 11.6214 8.22246C12.5578 7.28607 13.0325 6.14034 13.0325 4.81669C13.0325 3.49351 12.5578 2.34762 11.6212 1.41092C10.6847 0.474681 9.5388 0 8.21545 0C6.8918 0 5.74607 0.474681 4.80967 1.41107C3.87327 2.34747 3.39844 3.49335 3.39844 4.81669C3.39844 6.14034 3.87327 7.28622 4.80982 8.22262C5.74637 9.15886 6.89226 9.63369 8.21545 9.63369Z" fill="#B4ADA3"/>
<path d="M16.645 15.3791C16.618 14.9894 16.5634 14.5643 16.483 14.1154C16.4018 13.6632 16.2973 13.2357 16.1722 12.8449C16.0429 12.441 15.8672 12.0422 15.6499 11.66C15.4244 11.2632 15.1595 10.9178 14.8623 10.6335C14.5514 10.3362 14.1709 10.0971 13.7309 9.92266C13.2923 9.74917 12.8064 9.66129 12.2865 9.66129C12.0824 9.66129 11.8849 9.74505 11.5036 9.9933C11.269 10.1463 10.9945 10.3233 10.6881 10.5191C10.4261 10.686 10.0712 10.8424 9.63281 10.984C9.20513 11.1224 8.77088 11.1926 8.34227 11.1926C7.91367 11.1926 7.47957 11.1224 7.05143 10.984C6.61352 10.8426 6.25861 10.6862 5.99693 10.5193C5.69345 10.3253 5.4188 10.1483 5.18062 9.99315C4.79978 9.7449 4.60218 9.66113 4.39803 9.66113C3.87803 9.66113 3.39221 9.74917 2.95384 9.92281C2.5141 10.0969 2.1334 10.336 1.82229 10.6337C1.52521 10.9181 1.26018 11.2634 1.03496 11.66C0.81784 12.0422 0.642065 12.4409 0.512676 12.8451C0.387711 13.2358 0.283192 13.6632 0.202019 14.1154C0.121608 14.5637 0.0669836 14.989 0.0399765 15.3796C0.0134272 15.7623 0 16.1594 0 16.5606C0 17.6045 0.331866 18.4497 0.986291 19.073C1.63263 19.688 2.48785 20.0001 3.52785 20.0001H13.1576C14.1976 20.0001 15.0525 19.6882 15.699 19.073C16.3536 18.4501 16.6855 17.6048 16.6855 16.5604C16.6853 16.1574 16.6717 15.76 16.645 15.3791Z" fill="#B4ADA3"/>
</svg>
