<svg width="20" height="20" viewBox="0 0 20 20" fill="none" xmlns="http://www.w3.org/2000/svg">
<path d="M12.5002 10.8334C12.0393 10.8334 11.667 11.2069 11.667 11.6666V14.9999C11.667 15.4589 11.2936 15.8331 10.8334 15.8331H8.33337V3.33288C8.33337 2.62115 7.88023 1.98559 7.19858 1.74886L6.9517 1.66644H10.8334C11.2936 1.66644 11.667 2.04066 11.667 2.50005V5.0001C11.667 5.45987 12.0397 5.83332 12.5002 5.83332C12.9608 5.83332 13.3335 5.45987 13.3335 5.0001V2.50005C13.3335 1.12151 12.212 0 10.8334 0H1.87504C1.8434 0 1.81683 0.0140628 1.78597 0.0183597C1.74574 0.014844 1.70746 0 1.66683 0C0.747671 0 0 0.74728 0 1.66644V16.6667C0 17.3785 0.453134 18.014 1.13479 18.2507L6.15012 19.9227C6.32005 19.975 6.48919 20 6.66693 20C7.58609 20 8.33337 19.2523 8.33337 18.3332V17.5H10.8334C12.212 17.5 13.3335 16.3784 13.3335 14.9999V11.6662C13.3335 11.2065 12.9608 10.8334 12.5002 10.8334Z" fill="#FF6647"/>
<path d="M19.7563 7.74392L16.4227 4.41065C16.1844 4.17237 15.8262 4.10049 15.5144 4.22979C15.2035 4.35909 15.0004 4.663 15.0004 4.99973V7.49978H11.6671C11.2069 7.49978 10.8335 7.87322 10.8335 8.333C10.8335 8.79316 11.2069 9.16622 11.6671 9.16622H15.0004V11.6663C15.0004 12.003 15.2039 12.3073 15.5144 12.4366C15.8262 12.5655 16.1844 12.494 16.4227 12.2557L19.7563 8.92207C20.0821 8.59667 20.0821 8.06971 19.7563 7.74392Z" fill="#FF6647"/>
</svg>
