<svg width="20" height="20" viewBox="0 0 20 20" fill="none" xmlns="http://www.w3.org/2000/svg">
<path d="M19.9998 13.5352C19.9998 11.0532 18.576 8.83833 16.4436 7.76099C16.3771 12.5196 12.5193 16.3778 7.76074 16.4438C8.83809 18.5762 11.0529 20 13.535 20C14.6986 20 15.8303 19.6903 16.8244 19.1012L19.9717 19.9719L19.101 16.8247C19.69 15.8305 19.9998 14.6989 19.9998 13.5352Z" fill="#B4ADA3"/>
<path d="M15.2734 7.63672C15.2734 3.42578 11.8477 0 7.63672 0C3.42578 0 0 3.42578 0 7.63672C0 9.00898 0.365234 10.3453 1.05898 11.5184L0.028125 15.2453L3.75508 14.2145C4.92812 14.9082 6.26445 15.2734 7.63672 15.2734C11.8477 15.2734 15.2734 11.8477 15.2734 7.63672ZM6.46484 5.85938H5.29297C5.29297 4.5668 6.34414 3.51562 7.63672 3.51562C8.9293 3.51562 9.98047 4.5668 9.98047 5.85938C9.98047 6.51523 9.70273 7.1457 9.21836 7.58906L8.22266 8.5V9.41406H7.05078V7.98398L8.42695 6.72422C8.67305 6.49922 8.80859 6.1918 8.80859 5.85938C8.80859 5.21328 8.28281 4.6875 7.63672 4.6875C6.99062 4.6875 6.46484 5.21328 6.46484 5.85938ZM7.05078 10.5859H8.22266V11.7578H7.05078V10.5859Z" fill="#B4ADA3"/>
</svg>
