<svg width="17" height="20" viewBox="0 0 17 20" fill="none" xmlns="http://www.w3.org/2000/svg">
<path d="M16.5109 16.8684L15.0883 14.4835C14.4313 13.3827 14.0842 12.1219 14.0842 10.8387V8.74958C14.0842 6.11221 12.3343 3.88149 9.94158 3.16235V1.6666C9.94158 0.747464 9.1984 0 8.28454 0C7.37068 0 6.6275 0.747464 6.6275 1.6666V3.16235C4.23478 3.88149 2.48495 6.11221 2.48495 8.74958V10.8387C2.48495 12.1219 2.13779 13.3819 1.48161 14.4827L0.0590639 16.8675C-0.0179879 16.9967 -0.0196579 17.1567 0.0540929 17.2875C0.127844 17.4183 0.264548 17.4992 0.413681 17.4992H16.1554C16.3046 17.4992 16.4421 17.4184 16.5158 17.2884C16.5896 17.1584 16.5871 16.9967 16.5109 16.8684Z" fill="#B4ADA3"/>
<path d="M5.67822 18.3329C6.14551 19.3145 7.13476 19.9995 8.2872 19.9995C9.43965 19.9995 10.4289 19.3145 10.8962 18.3329H5.67822Z" fill="#B4ADA3"/>
</svg>
