<svg width="29" height="21" viewBox="0 0 29 21" fill="none" xmlns="http://www.w3.org/2000/svg">
<path d="M6.43089 0C2.88468 0 0 2.88469 0 6.43093C0 9.85194 2.68467 12.6578 6.05787 12.8517C6.11628 13.4822 6.07246 15.1987 4.42767 17.5865C4.30333 17.7666 4.32589 18.0095 4.48032 18.1639C5.15339 18.837 5.56936 19.2609 5.86049 19.5574C6.24152 19.945 6.41543 20.122 6.66986 20.353C6.75614 20.4313 6.86498 20.4707 6.97432 20.4707C7.08049 20.4707 7.18624 20.4335 7.27166 20.3596C10.1378 17.8657 13.3216 12.7127 12.861 6.39817C12.591 2.69088 9.88687 0 6.43089 0ZM6.97871 19.3985C6.85528 19.2768 6.71454 19.1335 6.50701 18.9224C6.2548 18.6653 5.90875 18.313 5.38394 17.7865C7.38009 14.7106 7.00305 12.5198 6.83802 12.2056C6.75967 12.0565 6.59904 11.956 6.43089 11.956C3.38471 11.956 0.90625 9.47756 0.90625 6.43093C0.90625 3.38471 3.38471 0.90625 6.43089 0.90625C9.39836 0.90625 11.7224 3.24356 11.9573 6.46365C12.4751 13.5659 8.25403 18.1772 6.97871 19.3985Z" fill="#FF6647"/>
<path d="M28.9545 6.39817V6.39772C28.6837 2.69088 25.9791 0 22.524 0C18.9778 0 16.0927 2.88469 16.0927 6.43093C16.0927 9.85194 18.7778 12.6578 22.1514 12.8517C22.2098 13.4818 22.1656 15.1974 20.5204 17.5865C20.396 17.7666 20.4186 18.0095 20.573 18.1639C21.2434 18.8343 21.6585 19.2574 21.9496 19.5534C22.3324 19.9437 22.5072 20.1216 22.763 20.3534C22.8492 20.4313 22.9585 20.4707 23.0674 20.4707C23.1736 20.4707 23.2794 20.4335 23.3648 20.3592C26.2309 17.8652 29.4147 12.7123 28.9545 6.39817ZM23.0718 19.3985C22.9475 19.2759 22.8055 19.1317 22.5961 18.9184C22.3439 18.6617 21.9992 18.3104 21.4766 17.7865C23.4727 14.7102 23.0962 12.5198 22.9316 12.2056C22.8532 12.0569 22.6922 11.956 22.524 11.956C19.4774 11.956 16.9989 9.47756 16.9989 6.43093C16.9989 3.38471 19.4774 0.90625 22.524 0.90625C25.491 0.90625 27.8155 3.24356 28.0509 6.4641V6.46365C28.5682 13.565 24.3471 18.1772 23.0718 19.3985Z" fill="#FF6647"/>
</svg>
