<svg width="16" height="14" viewBox="0 0 16 14" fill="none" xmlns="http://www.w3.org/2000/svg">
<path d="M8.00049 2.56806L7.65614 2.24184L7.30119 1.90559L8.00049 2.56806ZM8.00049 2.56806L8.34438 2.24135M8.00049 2.56806L8.34438 2.24135M8.34438 2.24135L8.71749 1.88687C8.71763 1.88675 8.71776 1.88662 8.71789 1.8865C10.2624 0.42536 12.7806 0.42455 14.3263 1.88409C15.0783 2.62072 15.5 3.55941 15.5 4.57042C15.5 5.57079 15.0911 6.52308 14.3315 7.2332L14.3314 7.23319L14.3286 7.23586L8.06293 13.1845C8.04728 13.1964 8.03536 13.2024 8.02745 13.2055C8.0189 13.2089 8.01074 13.2106 8 13.2106C7.98934 13.2106 7.98119 13.2089 7.9726 13.2055C7.96466 13.2024 7.9527 13.1964 7.937 13.1845L1.67137 7.23586L1.67138 7.23585L1.66855 7.23321C0.908854 6.52304 0.5 5.57075 0.5 4.57042C0.5 3.55804 0.92255 2.62246 1.68722 1.90768L1.68723 1.90768M8.34438 2.24135L1.68723 1.90768M1.68723 1.90768L1.68944 1.90559M1.68723 1.90768L1.68944 1.90559M1.68944 1.90559C3.23487 0.443205 5.75542 0.443135 7.30098 1.9054L1.68944 1.90559Z" stroke="#FF6647"/>
</svg>
