<svg width="16" height="14" viewBox="0 0 16 14" fill="none" xmlns="http://www.w3.org/2000/svg">
<path d="M14.6729 1.52272C12.9346 -0.122157 10.1121 -0.122157 8.37383 1.52272L8 1.87788L7.64484 1.54143C5.90651 -0.103446 3.08408 -0.103446 1.34578 1.54143C0.485993 2.34512 0 3.41056 0 4.56945C0 5.70962 0.467282 6.79373 1.32711 7.59749L7.60749 13.5601C7.71965 13.6536 7.85049 13.7097 8 13.7097C8.14955 13.7097 8.28038 13.6536 8.39251 13.5601L14.6729 7.59749C15.5327 6.79377 16 5.70965 16 4.56945C16 3.41056 15.514 2.34512 14.6729 1.52272Z" fill="#FF6647"/>
</svg>
