<svg width="23" height="20" viewBox="0 0 23 20" fill="none" xmlns="http://www.w3.org/2000/svg">
<path d="M21.0217 7.93271L2.9868 0.172732C2.22702 -0.154218 1.36866 -0.0103904 0.746747 0.547897C0.124837 1.10627 -0.135278 1.96661 0.0679942 2.79313L1.67326 9.32091H9.53286C9.89452 9.32091 10.1878 9.62495 10.1878 10C10.1878 10.3751 9.89457 10.6791 9.53286 10.6791H1.67326L0.0679942 17.2069C-0.135278 18.0334 0.124793 18.8938 0.746747 19.4521C1.36992 20.0115 2.22837 20.1536 2.98685 19.8273L21.0218 12.0673C21.8429 11.714 22.3529 10.9219 22.3529 10C22.3529 9.07816 21.8429 8.28596 21.0217 7.93271Z" fill="#FF6647"/>
</svg>
