<svg width="18" height="18" viewBox="0 0 18 18" fill="none" xmlns="http://www.w3.org/2000/svg">
<path d="M17.6876 10.9722L15.9887 9.67849C16.0414 9.2271 16.0414 8.77114 15.9887 8.3194L17.6891 7.025C18.0079 6.77505 18.0931 6.33667 17.8902 5.99075L16.1226 3.0156C15.919 2.66722 15.4854 2.51535 15.1006 2.65702L13.0984 3.44168C12.7222 3.17591 12.3189 2.94775 11.8954 2.76143L11.5882 0.690113C11.5326 0.292513 11.1821 -0.00313878 10.7702 2.51546e-05H7.22748C6.81881 -0.00243568 6.47115 0.290052 6.41411 0.684137L6.10616 2.76143C5.68377 2.94951 5.28124 3.17767 4.90469 3.44238L2.89671 2.65632C2.51584 2.51008 2.08261 2.66019 1.88225 3.00822L0.11326 5.98864C-0.0950478 6.33527 -0.00912544 6.77822 0.314347 7.02746L2.0133 8.32116C1.96023 8.77255 1.96023 9.2285 2.0133 9.68024L0.312903 10.9739C-0.0062373 11.2235 -0.0917986 11.6619 0.111094 12.0082L1.87792 14.984C2.08117 15.3324 2.51511 15.4846 2.89996 15.3426L4.90253 14.5583C5.27907 14.8244 5.68233 15.0526 6.10616 15.2393L6.41411 17.3092C6.46826 17.7057 6.81665 18.0014 7.22748 18H10.7702C11.1796 18.0031 11.5283 17.7106 11.5857 17.3159L11.8936 15.2386C12.316 15.0501 12.7182 14.8223 13.0951 14.5576L15.1053 15.3444C15.4861 15.4903 15.919 15.3402 16.1197 14.9925L17.8941 12.0001C18.0927 11.6542 18.0053 11.2193 17.6876 10.9722ZM8.99864 12.7496C6.87188 12.7496 5.14766 11.0706 5.14766 8.99965C5.14766 6.92868 6.87188 5.24969 8.99864 5.24969C11.1254 5.24969 12.8496 6.92868 12.8496 8.99965C12.8471 11.0696 11.1243 12.7471 8.99864 12.7496Z" fill="#CBC6BF"/>
</svg>
