<svg width="40" height="40" viewBox="0 0 40 40" fill="none" xmlns="http://www.w3.org/2000/svg">
<circle cx="20" cy="20" r="20" fill="#1A1A1A"/>
<path d="M27.5865 22.8244C27.5361 22.9606 27.4873 23.1068 27.4312 23.2506C26.9662 24.4564 26.2604 25.5269 25.404 26.5081C25.2387 26.6991 25.0462 26.872 24.8473 27.0323C24.4542 27.351 24.0019 27.5435 23.4787 27.561C23.0857 27.5731 22.7084 27.5047 22.3447 27.363C22.0813 27.26 21.8221 27.1449 21.555 27.0519C20.6881 26.7503 19.8259 26.79 18.9732 27.1127C18.6657 27.2293 18.3624 27.358 18.0491 27.459C17.686 27.5756 17.3092 27.6229 16.9256 27.5535C16.5908 27.4937 16.298 27.3444 16.0262 27.1519C15.6888 26.9127 15.4054 26.6211 15.1404 26.3125C13.8857 24.8469 13.0435 23.1898 12.6368 21.3336C12.4616 20.5355 12.3776 19.7308 12.429 18.915C12.4894 17.9369 12.7266 17.0056 13.2723 16.1662C13.9571 15.1112 14.9232 14.4201 16.1941 14.1351C16.9587 13.9627 17.7023 14.0331 18.4311 14.302C18.8147 14.4427 19.1994 14.5819 19.5845 14.7202C19.9393 14.8478 20.2924 14.8478 20.6477 14.7177C21.0407 14.5739 21.4343 14.4307 21.8289 14.2904C22.2335 14.1492 22.6449 14.0336 23.0741 14.0009C23.7164 13.9512 24.343 14.0311 24.9527 14.2266C25.817 14.5035 26.5202 14.9936 27.0512 15.7073C27.0654 15.7269 27.0811 15.7485 27.0916 15.7641C25.7525 16.6583 24.99 17.8394 25.1007 19.4387C25.2125 21.0391 26.1119 22.1217 27.5865 22.8244ZM20.0747 13.8029C20.4698 13.8129 20.8497 13.7401 21.2155 13.6008C22.8837 12.9665 23.7558 11.2762 23.7296 9.9835C23.7275 9.87946 23.7201 9.77541 23.7154 9.65479C23.5438 9.67941 23.3874 9.69097 23.2373 9.72716C22.0194 10.0132 21.0822 10.664 20.4661 11.718C20.1056 12.3352 19.9052 12.9907 19.9666 13.7069C19.9708 13.7828 19.9996 13.8019 20.0747 13.8029Z" fill="white"/>
</svg>
