<svg width="41" height="40" viewBox="0 0 41 40" fill="none" xmlns="http://www.w3.org/2000/svg">
<circle cx="20.0688" cy="20" r="20" fill="#CB5849"/>
<path d="M20.0696 18.483V21.5175H24.3619C23.7353 23.2836 22.0481 24.552 20.0696 24.552C17.5601 24.552 15.5179 22.5098 15.5179 20.0003C15.5179 17.4908 17.5601 15.4485 20.0696 15.4485C21.1575 15.4485 22.2044 15.8385 23.0176 16.547L25.0113 14.259C23.6457 13.0695 21.8918 12.4141 20.0696 12.4141C15.8866 12.4141 12.4834 15.8172 12.4834 20.0003C12.4834 24.1833 15.8866 27.5865 20.0696 27.5865C24.2526 27.5865 27.6558 24.1833 27.6558 20.0003V18.483H20.0696Z" fill="white"/>
</svg>
