<svg width="22" height="22" viewBox="0 0 22 22" fill="none" xmlns="http://www.w3.org/2000/svg">
<g clip-path="url(#clip0)">
<path d="M10.7 20.15C15.9191 20.15 20.15 15.9191 20.15 10.7C20.15 5.48091 15.9191 1.25 10.7 1.25C5.48091 1.25 1.25 5.48091 1.25 10.7C1.25 15.9191 5.48091 20.15 10.7 20.15Z" stroke="#9E9E9E" stroke-width="2.5" stroke-miterlimit="10"/>
<path d="M7.90998 9.57997C8.56168 9.57997 9.08998 9.05167 9.08998 8.39997C9.08998 7.74827 8.56168 7.21997 7.90998 7.21997C7.25828 7.21997 6.72998 7.74827 6.72998 8.39997C6.72998 9.05167 7.25828 9.57997 7.90998 9.57997Z" fill="#9E9E9E"/>
<path d="M13.4798 9.57997C14.1315 9.57997 14.6598 9.05167 14.6598 8.39997C14.6598 7.74827 14.1315 7.21997 13.4798 7.21997C12.8281 7.21997 12.2998 7.74827 12.2998 8.39997C12.2998 9.05167 12.8281 9.57997 13.4798 9.57997Z" fill="#9E9E9E"/>
<path d="M7 14H14" stroke="#9E9E9E" stroke-width="1.5"/>
</g>
<defs>
<clipPath id="clip0">
<rect width="21.4" height="21.4" fill="white"/>
</clipPath>
</defs>
</svg>
