<svg width="22" height="22" viewBox="0 0 22 22" fill="none" xmlns="http://www.w3.org/2000/svg">
<g clip-path="url(#clip0)">
<path d="M10.7 20.15C15.9191 20.15 20.15 15.9191 20.15 10.7C20.15 5.48091 15.9191 1.25 10.7 1.25C5.48091 1.25 1.25 5.48091 1.25 10.7C1.25 15.9191 5.48091 20.15 10.7 20.15Z" stroke="#9E9E9E" stroke-width="2.5" stroke-miterlimit="10"/>
<path d="M10.82 14.17C9.13001 14.17 7.99001 13.23 7.04001 11.99" stroke="#9E9E9E" stroke-width="1.5" stroke-miterlimit="10" stroke-linejoin="round"/>
<path d="M10.57 14.17C12.26 14.17 13.4 13.23 14.35 11.99" stroke="#9E9E9E" stroke-width="1.5" stroke-miterlimit="10" stroke-linejoin="round"/>
<path d="M7.91001 9.57997C8.56171 9.57997 9.09001 9.05167 9.09001 8.39997C9.09001 7.74827 8.56171 7.21997 7.91001 7.21997C7.25831 7.21997 6.73001 7.74827 6.73001 8.39997C6.73001 9.05167 7.25831 9.57997 7.91001 9.57997Z" fill="#9E9E9E"/>
<path d="M13.48 9.57997C14.1317 9.57997 14.66 9.05167 14.66 8.39997C14.66 7.74827 14.1317 7.21997 13.48 7.21997C12.8283 7.21997 12.3 7.74827 12.3 8.39997C12.3 9.05167 12.8283 9.57997 13.48 9.57997Z" fill="#9E9E9E"/>
</g>
<defs>
<clipPath id="clip0">
<rect width="21.4" height="21.4" fill="white"/>
</clipPath>
</defs>
</svg>
