<svg width="22" height="22" viewBox="0 0 22 22" fill="none" xmlns="http://www.w3.org/2000/svg">
<path d="M11.0001 20.7151C16.3655 20.7151 20.7151 16.3655 20.7151 11.0001C20.7151 5.63469 16.3655 1.28516 11.0001 1.28516C5.63469 1.28516 1.28516 5.63469 1.28516 11.0001C1.28516 16.3655 5.63469 20.7151 11.0001 20.7151Z" stroke="#9E9E9E" stroke-width="2.5" stroke-miterlimit="10"/>
<path d="M11.1238 14.5673C9.38639 14.5673 8.21443 13.6009 7.23779 12.3262" stroke="#9E9E9E" stroke-width="1.5" stroke-miterlimit="10" stroke-linejoin="round"/>
<path d="M10.8667 14.5673C12.6041 14.5673 13.776 13.6009 14.7527 12.3262" stroke="#9E9E9E" stroke-width="1.5" stroke-miterlimit="10" stroke-linejoin="round"/>
<path d="M8.13203 9.84853C8.802 9.84853 9.34511 9.30542 9.34511 8.63545C9.34511 7.96548 8.802 7.42236 8.13203 7.42236C7.46206 7.42236 6.91895 7.96548 6.91895 8.63545C6.91895 9.30542 7.46206 9.84853 8.13203 9.84853Z" fill="#9E9E9E"/>
<path d="M13.8581 9.84853C14.5281 9.84853 15.0712 9.30542 15.0712 8.63545C15.0712 7.96548 14.5281 7.42236 13.8581 7.42236C13.1881 7.42236 12.645 7.96548 12.645 8.63545C12.645 9.30542 13.1881 9.84853 13.8581 9.84853Z" fill="#9E9E9E"/>
</svg>
