<svg width="17" height="17" viewBox="0 0 17 17" fill="none" xmlns="http://www.w3.org/2000/svg">
<path d="M14.5248 13.9434C15.1582 13.8441 16.4689 13.6149 16.7197 13.0377C16.8461 12.7404 16.6655 12.4987 16.4349 12.4619V12.4612C14.2066 12.0944 13.2023 9.81201 13.1613 9.71476C12.5438 8.60758 14.2198 8.79374 14.879 8.11859C15.5222 7.45665 14.4907 6.73983 13.8454 7.04406C13.5808 7.16839 13.1842 7.31287 12.9203 7.19201C12.9828 6.14387 13.1557 4.406 12.7313 3.45719C11.3039 0.25998 7.09471 0.144678 5.13874 2.00063C3.59744 3.46205 3.78637 4.96445 3.93084 7.19201C3.45158 7.40108 2.97786 6.98571 2.63265 6.98571C2.27007 6.98571 1.84846 7.22118 1.78039 7.57612C1.69426 8.04219 2.20062 8.34225 2.6389 8.5152C3.38559 8.80832 4.09546 8.89515 3.70163 9.69532C3.69816 9.70157 3.69538 9.70782 3.69329 9.71407C3.13554 10.988 1.91792 12.2125 0.418987 12.4598C0.177269 12.4994 0.0119559 12.7543 0.132815 13.0356V13.037C0.380784 13.6149 1.70398 13.8462 2.32842 13.9434C2.52152 14.3046 2.37357 15.018 2.97161 15.018C3.2043 15.018 3.6544 14.8659 4.22882 14.8659C5.06581 14.8659 5.35128 15.0485 6.02226 15.5222C6.71129 16.0092 7.4684 16.485 8.40957 16.4162C9.38964 16.4773 10.1176 16.0265 10.8316 15.5236L10.8323 15.5222C11.5283 15.0326 12.0256 14.6707 13.4995 14.9603C14.59 15.1715 14.2719 14.4331 14.5248 13.9434Z" fill="#EECD23"/>
</svg>
