<svg width="16" height="13" viewBox="0 0 16 13" fill="none" xmlns="http://www.w3.org/2000/svg">
<path d="M15.3996 1.42949C14.847 1.67192 14.2581 1.83261 13.6441 1.91064C14.2757 1.53352 14.7578 0.940921 14.9844 0.226638C14.3955 0.577742 13.7453 0.825744 13.0524 0.964142C12.4933 0.368752 11.6963 0 10.8269 0C9.14013 0 7.78216 1.36912 7.78216 3.04754C7.78216 3.28904 7.80259 3.52126 7.85275 3.74232C5.31979 3.61878 3.07848 2.40478 1.57282 0.55545C1.30996 1.01151 1.15577 1.53352 1.15577 2.09548C1.15577 3.15065 1.69914 4.08599 2.5091 4.62751C2.0196 4.61822 1.53938 4.47611 1.13255 4.25226C1.13255 4.26155 1.13255 4.27362 1.13255 4.2857C1.13255 5.76628 2.18865 6.99607 3.57355 7.27937C3.32555 7.34717 3.05526 7.37968 2.77475 7.37968C2.57969 7.37968 2.38277 7.36854 2.19793 7.32767C2.59269 8.53424 3.71288 9.42129 5.04485 9.45008C4.00826 10.261 2.69208 10.7495 1.26723 10.7495C1.01737 10.7495 0.777728 10.7384 0.538086 10.7077C1.8877 11.5781 3.48717 12.075 5.21204 12.075C10.8186 12.075 13.8837 7.43077 13.8837 3.40515C13.8837 3.27047 13.8791 3.14043 13.8726 3.01132C14.4773 2.58219 14.9854 2.04625 15.3996 1.42949Z" fill="white"/>
</svg>
