<svg width="16" height="13" viewBox="0 0 16 13" fill="none" xmlns="http://www.w3.org/2000/svg">
<path d="M15.4047 1.78879C14.8412 2.03219 14.2407 2.19353 13.6146 2.27187C14.2587 1.89324 14.7502 1.29824 14.9813 0.58107C14.3808 0.933592 13.7178 1.1826 13.0112 1.32155C12.441 0.723757 11.6284 0.353516 10.7418 0.353516C9.02175 0.353516 7.63698 1.72817 7.63698 3.41337C7.63698 3.65585 7.65782 3.889 7.70897 4.11096C5.12603 3.98692 2.84051 2.76801 1.30515 0.91121C1.0371 1.36912 0.879869 1.89324 0.879869 2.45746C0.879869 3.51689 1.43396 4.45602 2.2599 4.99972C1.76074 4.9904 1.27105 4.84771 0.856189 4.62295C0.856189 4.63228 0.856189 4.6444 0.856189 4.65653C0.856189 6.14309 1.93312 7.37785 3.34535 7.66229C3.09246 7.73037 2.81683 7.76301 2.53079 7.76301C2.33188 7.76301 2.13108 7.75182 1.94259 7.71079C2.34514 8.92223 3.48743 9.81287 4.84567 9.84178C3.78863 10.6559 2.44649 11.1465 0.993529 11.1465C0.73874 11.1465 0.49437 11.1353 0.25 11.1045C1.62624 11.9784 3.25727 12.4773 5.01616 12.4773C10.7333 12.4773 13.8589 7.81431 13.8589 3.77242C13.8589 3.6372 13.8542 3.50663 13.8476 3.377C14.4642 2.94614 14.9823 2.40803 15.4047 1.78879Z" fill="#28A2FB"/>
</svg>
