<svg width="23" height="21" viewBox="0 0 23 21" fill="none" xmlns="http://www.w3.org/2000/svg">
<g clip-path="url(#clip0)">
<path d="M9.32715 16.1575C7.35355 14.4603 5.65512 12.9932 4.5165 11.6027C3.35891 10.1932 2.84653 8.94658 2.84653 7.55616C2.84653 6.24247 3.283 5.04384 4.07054 4.18082C4.83911 3.34658 5.90181 2.87671 7.04992 2.87671C7.90388 2.87671 8.65347 3.13562 9.34612 3.68219C9.70668 3.96986 10.0483 4.32466 10.3424 4.73699L11.5 6.34795L12.6576 4.73699C12.9517 4.32466 13.2933 3.96986 13.6539 3.68219C14.2232 3.23151 14.8399 2.99178 15.5231 2.91507L16.6902 0.0479452C16.4435 0.00958904 16.1968 0 15.9501 0C14.4604 0 13.1035 0.469863 11.908 1.40959C11.7657 1.51507 11.6328 1.63014 11.5 1.75479C11.3672 1.63014 11.2343 1.51507 11.092 1.40959C9.89645 0.469863 8.5396 0 7.04992 0C5.0953 0 3.29249 0.79589 1.9736 2.23425C0.702145 3.63425 0 5.52329 0 7.55616C0 9.63699 0.740099 11.4973 2.32467 13.4342C3.6151 15.0164 5.40842 16.5507 7.50536 18.3534C8.19802 18.9479 8.97607 19.6192 9.78259 20.3384C9.79208 20.3479 9.80157 20.3575 9.81106 20.3575L10.6271 17.2699C10.1811 16.8863 9.73515 16.5123 9.32715 16.1575Z" fill="#9E9E9E"/>
<path d="M13.2174 20.3479C13.986 19.6671 14.7261 19.0342 15.3903 18.4589L15.5136 18.3534C17.5916 16.5602 19.3849 15.0164 20.6848 13.4342C22.2694 11.4972 23.0095 9.62737 23.0095 7.55614C23.0095 5.52326 22.3074 3.63422 21.0359 2.23422C19.8878 0.978056 18.3696 0.210933 16.6997 0.0383301L15.5326 2.90545C15.656 2.89586 15.7983 2.87669 15.9501 2.87669C17.1077 2.87669 18.1609 3.34655 18.939 4.19039C19.7265 5.0534 20.163 6.25203 20.163 7.56573C20.163 8.95614 19.6506 10.2027 18.493 11.6123C17.3544 13.0027 15.6465 14.4698 13.6634 16.1767L13.5495 16.2726C12.9233 16.8096 12.2306 17.4041 11.5095 18.0466C11.2154 17.7876 10.9212 17.5383 10.6366 17.289L9.82056 20.3767C10.295 20.7794 10.8833 21.0096 11.5095 21.0096C12.1357 21 12.743 20.7602 13.2174 20.3479Z" fill="#9E9E9E"/>
<path d="M13.1415 1.33289L10.0002 9.99988L13.5002 11.4999L11.5002 18.4999" stroke="#9E9E9E" stroke-width="1.5" stroke-miterlimit="10" stroke-linejoin="round"/>
</g>
<defs>
<clipPath id="clip0">
<rect width="23" height="21" fill="white"/>
</clipPath>
</defs>
</svg>
