<svg width="24" height="23" viewBox="0 0 24 23" fill="none" xmlns="http://www.w3.org/2000/svg">
<g clip-path="url(#clip0)">
<path d="M19.0119 20.4634H4.21421C2.43088 20.4634 0.96814 19.1179 0.96814 17.4775V4.93483C0.96814 3.29442 2.43088 1.94891 4.21421 1.94891H19.0219C20.8053 1.94891 22.268 3.29442 22.268 4.93483V17.4867C22.258 19.1271 20.7952 20.4634 19.0119 20.4634Z" stroke="#B4ADA3" stroke-width="2.3" stroke-miterlimit="10"/>
<path d="M7.26133 8.9552C8.00992 8.9552 8.61677 8.34441 8.61677 7.59097C8.61677 6.83753 8.00992 6.22675 7.26133 6.22675C6.51274 6.22675 5.90588 6.83753 5.90588 7.59097C5.90588 8.34441 6.51274 8.9552 7.26133 8.9552Z" fill="#B4ADA3"/>
<path d="M1.45227 17.4426L8.17141 12.5801L14.6679 15.1624L22.026 7.11346" stroke="#B4ADA3" stroke-width="1.5" stroke-miterlimit="10" stroke-linejoin="round"/>
</g>
<defs>
<clipPath id="clip0">
<rect width="23.4783" height="22.5" fill="white"/>
</clipPath>
</defs>
</svg>
