<svg width="18" height="11" viewBox="0 0 18 11" fill="none" xmlns="http://www.w3.org/2000/svg">
<path d="M16.3738 1.32401C15.9216 0.579503 15.4309 0.442559 14.4318 0.390482C13.4336 0.327796 10.9237 0.301758 8.7493 0.301758C6.57071 0.301758 4.05976 0.327796 3.06267 0.389518C2.06559 0.442559 1.57381 0.578538 1.11747 1.32401C0.651744 2.06756 0.412109 3.34827 0.412109 5.60302C0.412109 5.60495 0.412109 5.60591 0.412109 5.60591C0.412109 5.60784 0.412109 5.60881 0.412109 5.60881V5.61074C0.412109 7.85584 0.651744 9.1462 1.11747 9.88203C1.57381 10.6265 2.06454 10.7616 3.06163 10.8242C4.05976 10.8782 6.57071 10.9101 8.7493 10.9101C10.9237 10.9101 13.4336 10.8782 14.4328 10.8252C15.432 10.7625 15.9227 10.6275 16.3749 9.88299C16.8448 9.14716 17.0823 7.8568 17.0823 5.6117C17.0823 5.6117 17.0823 5.60881 17.0823 5.60688C17.0823 5.60688 17.0823 5.60495 17.0823 5.60398C17.0823 3.34827 16.8448 2.06756 16.3738 1.32401ZM6.66344 8.49909V2.71274L11.8729 5.60591L6.66344 8.49909Z" fill="#DF4545"/>
</svg>
