<svg width="18" height="13" viewBox="0 0 18 13" fill="none" xmlns="http://www.w3.org/2000/svg">
<path d="M17.235 1.75634C16.7467 0.914157 16.2169 0.759248 15.138 0.700339C14.0603 0.62943 11.3501 0.599976 9.00225 0.599976C6.64987 0.599976 3.93862 0.62943 2.862 0.699248C1.78537 0.759248 1.25437 0.913066 0.761625 1.75634C0.25875 2.59743 0 4.04616 0 6.5967C0 6.59889 0 6.59998 0 6.59998C0 6.60216 0 6.60325 0 6.60325V6.60543C0 9.14507 0.25875 10.6047 0.761625 11.4371C1.25437 12.2792 1.78425 12.432 2.86087 12.5029C3.93863 12.564 6.64987 12.6 9.00225 12.6C11.3501 12.6 14.0602 12.564 15.1391 12.504C16.218 12.4331 16.7479 12.2803 17.2361 11.4382C17.7435 10.6058 18 9.14616 18 6.60652C18 6.60652 18 6.60325 18 6.60107C18 6.60107 18 6.59889 18 6.59779C18 4.04616 17.7435 2.59743 17.235 1.75634ZM6.75 9.8727V3.32725L12.375 6.59998L6.75 9.8727Z" fill="white"/>
</svg>
